<svg xmlns="http://www.w3.org/2000/svg" xmlns:xlink="http://www.w3.org/1999/xlink" viewBox="0 0 1024 296"><defs><path id="a" d="M563.1 295.3h7.7v-35.8h-7.7v35.8zm39.3-35.8v23.2l-16.7-23.2h-7.9v35.8h7.7v-24l17.1 24h7.4v-35.8h-7.6zm14.7 0v35.8h7.7v-14.9h17.4v-6.5h-17.4v-7.8h17.8v-6.5h-25.5zm38.5 6.6h8c3.1 0 5.4 1.9 5.4 4.9 0 3-2.3 4.9-5.4 4.9h-8v-9.8zm-7.7-6.6v35.8h7.7v-12.8h5.6l7.1 12.8h8.8l-8.1-13.6c3.9-.9 7.9-4.3 7.9-10.6 0-6.6-4.6-11.5-12.1-11.5h-16.9zm49.5 6.6l5.9 16.4h-11.9l6-16.4zm-4.7-6.6l-13.9 35.8h8.4l2.3-6.2h16.1l2.3 6.2h8.4l-13.9-35.8h-9.7zm56.1 0v6.7h10.5v29.1h7.7v-29.1h10.5v-6.7h-28.7zm41.2 6.6h8c3.1 0 5.4 1.9 5.4 4.9 0 3-2.3 4.9-5.4 4.9h-8v-9.8zm-7.6-6.6v35.8h7.7v-12.8h5.6l7.1 12.8h8.8l-8.1-13.6c3.9-.9 7.9-4.3 7.9-10.6 0-6.6-4.6-11.5-12.1-11.5h-16.9zm108.7 0v6.7h10.5v29.1h7.7v-29.1h10.5v-6.7h-28.7zm80.5 6.6h8c3.1 0 5.4 1.9 5.4 4.9 0 3-2.3 4.9-5.4 4.9h-8v-9.8zm-7.7-6.6v35.8h7.7v-12.8h5.6l7.1 12.8h8.8l-8.1-13.6c3.9-.9 7.9-4.3 7.9-10.6 0-6.6-4.6-11.5-12.1-11.5h-16.9zm34.7 0v35.8h25.4v-6.6h-17.8v-8.3h17.4v-6.5h-17.4v-7.8h17.8v-6.5h-25.4zm-157.2-.6v21.2c0 5-2.7 8.4-8.2 8.4-5.6 0-8.4-3.4-8.4-8.4v-21.2H817v21.5c0 8.8 5.1 14.9 16.1 14.9 10.9 0 16-6.1 16-15v-21.4h-7.7zm107.6 0v21.2c0 5-2.7 8.4-8.2 8.4-5.6 0-8.4-3.4-8.4-8.4v-21.2h-7.8v21.5c0 8.8 5.1 14.9 16.1 14.9 10.9 0 16-6.1 16-15v-21.4H949zm-919.8-.4l-9 23.1-9-23.1H0v37h7.9v-26.7l10.5 26.7h3.5l10.5-26.7v26.7h8v-37H29.2zm34.6 7.9l5.8 15.9H58l5.8-15.9zm-4.9-7.9l-14.3 37h9l2.3-6.3h15.9l2.3 6.3h9l-14.3-37h-9.9zm72.9 6.9h6.8c7.6 0 11.6 5 11.6 11.5 0 6.3-4.3 11.6-11.7 11.6h-6.7v-23.1zm-7.9-6.9v37h14.7c11.6 0 19.7-7.3 19.7-18.5 0-11.1-8.1-18.5-19.7-18.5h-14.7zm108.3 0v23.2L215 258.5h-8.1v37h7.9v-24.1l17.7 24.1h7.6v-37h-7.9zm31.4 7.9l5.8 15.9h-11.6l5.8-15.9zm-5-7.9l-14.3 37h9l2.3-6.3h15.9l2.3 6.3h9l-14.3-37h-9.9zm28.6 0v37h23.7v-6.9h-15.7v-30.1h-8zm42.3 30l-6.7-.2.8-23.1 6.8.2c7.6.3 11.4 5.4 11.2 11.9-.2 6.2-4.5 11.2-11.5 11.2h-.6m-14.3-30v37h14.7c11.6 0 19.7-7.3 19.7-18.5 0-11.1-8.1-18.5-19.7-18.5h-14.7zm402.6 10.6c0 8 7.5 9.6 13.4 10.9 4.2 1 7.3 1.9 7.3 4.6 0 2-2.1 4-6.3 4-5 0-8.9-2.2-11.4-4.8l-4.2 5.8c3.3 3.4 8.3 5.7 15.2 5.7 9.7 0 14.4-4.9 14.4-11.5 0-7.9-7.6-9.7-13.5-11-4.1-1-7.2-1.7-7.2-4.1 0-2.1 1.8-3.6 5.3-3.6s7.4 1.2 10.3 3.9l4.3-5.6c-3.6-3.3-8.3-5-14-5-8.5-.1-13.6 4.8-13.6 10.7m136.8 7.7c0 11 8.4 18.5 18.9 18.5 8.2 0 12.7-4.3 15.3-8.8l-6.6-3.2c-1.5 2.9-4.7 5.2-8.7 5.2-6.3 0-11-5-11-11.7 0-6.8 4.7-11.7 11-11.7 4 0 7.2 2.3 8.7 5.2l6.6-3.2c-2.5-4.4-7.1-8.7-15.3-8.7-10.6-.1-18.9 7.4-18.9 18.4m-771.4.2c0 11.4 8.6 19.1 19.8 19.1 8.1 0 12.9-4.5 15.5-9.1l-6.8-3.3c-1.6 3-4.9 5.4-8.7 5.4-6.8 0-11.7-5.2-11.7-12.1 0-7 4.9-12.1 11.7-12.1 3.8 0 7.1 2.4 8.7 5.4l6.8-3.3c-2.6-4.7-7.4-9-15.5-9-11.1-.1-19.8 7.6-19.8 19m87.5 0c0-6.9 4.4-12.1 11.3-12.1s11.3 5.2 11.3 12.1c0 6.9-4.4 12.1-11.3 12.1-6.9.1-11.3-5.2-11.3-12.1m-8.2 0c0 11.2 8.2 19.1 19.5 19.1 11.2 0 19.4-8 19.4-19.1 0-11.1-8.2-19.1-19.4-19.1-11.3 0-19.5 8-19.5 19.1m461.6-74.9l-8.7 22.3-8.7-22.3H596V238h7.7v-25.8l10.1 25.8h3.3l10.1-25.8V238h7.7v-35.8h-10.8zm32.8 6.7l5.9 16.4h-11.9l6-16.4zm-4.8-6.7L638.2 238h8.4l2.3-6.2H665l2.3 6.2h8.4l-13.9-35.8h-9.7zm34.5 6.6h8c3.1 0 5.4 1.9 5.4 4.9 0 3-2.3 4.9-5.4 4.9h-8v-9.8zm-7.7-6.6V238h7.7v-12.8h5.6l7.1 12.8h8.8l-8.1-13.6c3.9-.9 7.9-4.3 7.9-10.6 0-6.7-4.6-11.5-12.1-11.5h-16.9zm32 0v6.7h10.5V238h7.7v-29.1h10.5v-6.7h-28.7zm-148.7 10.3c0 8 7.6 9.6 13.4 11 4.2 1 7.3 1.9 7.3 4.6 0 2-2.1 4-6.3 4-5 0-8.9-2.2-11.4-4.8L561 233c3.3 3.4 8.3 5.7 15.2 5.7 9.7 0 14.4-4.9 14.4-11.5 0-7.9-7.6-9.7-13.5-11.1-4.2-1-7.2-1.7-7.2-4.1 0-2.1 1.8-3.7 5.3-3.7s7.4 1.2 10.3 3.9l4.3-5.6c-3.6-3.3-8.3-5-14-5-8.4 0-13.6 4.8-13.6 10.8m-533-11.2l-9 23.1-9-23.1H0v37h7.9v-26.7l10.5 26.7h3.5l10.5-26.7v26.7h8v-37H29.2zm57.3 0v6.9h10.9v30.1h8v-30.1h10.8v-6.9H86.5zm34 0v6.9h10.9v30.1h8v-30.1h10.8v-6.9h-29.7zM54 219.8c0-6.9 4.4-12.1 11.3-12.1s11.3 5.2 11.3 12.1c0 6.9-4.4 12.1-11.3 12.1S54 226.6 54 219.8m-8.1 0c0 11.2 8.2 19.1 19.5 19.1 11.2 0 19.4-8 19.4-19.1 0-11.1-8.2-19.1-19.4-19.1-11.3-.1-19.5 7.9-19.5 19.1m274.7-108L297.1 172l-23.5-60.2h-28.9v96.4h20.6v-69.5l27.3 69.5h9l27.3-69.5v69.5h20.8v-96.4h-29.1zm134.2 183.5h2.6V111.8h-2.6v183.5zM75.9-.2L52.4 60.1 28.9-.2H0v96.4h20.6V26.7l27.3 69.5h9l27.3-69.5v69.5H105V-.2H75.9z"/></defs><clipPath id="b"><use xlink:href="#a" overflow="visible"/></clipPath><path clip-path="url(#b)" fill="#fff" d="M-21.8-21.9h1067.6V318H-21.8z"/></svg>